<?xml version="1.0" encoding="UTF-8" standalone="no"?>
<!DOCTYPE svg PUBLIC "-//W3C//DTD SVG 1.1//EN" "http://www.w3.org/Graphics/SVG/1.1/DTD/svg11.dtd">
<svg width="100%" height="100%" viewBox="0 0 151 150" version="1.1" xmlns="http://www.w3.org/2000/svg" xmlns:xlink="http://www.w3.org/1999/xlink" xml:space="preserve" xmlns:serif="http://www.serif.com/" style="fill-rule:evenodd;clip-rule:evenodd;stroke-linecap:round;stroke-linejoin:round;stroke-miterlimit:1.5;">
    <g transform="matrix(1,0,0,1,-158,0)">
        <g id="Dice-2" serif:id="Dice 2" transform="matrix(0.600967,0,0,0.603699,235.484,13.6398)">
            <rect x="-128.148" y="-22.594" width="249.598" height="248.468" style="fill:none;"/>
            <clipPath id="_clip1">
                <rect x="-128.148" y="-22.594" width="249.598" height="248.468"/>
            </clipPath>
            <g clip-path="url(#_clip1)">
                <g transform="matrix(1.83128,0,0,1.82499,-223.173,-121.302)">
                    <path d="M188.943,87.786C188.943,68.851 173.553,53.478 154.598,53.478L85.907,53.478C66.951,53.478 51.561,68.851 51.561,87.786L51.561,156.552C51.561,175.487 66.951,190.86 85.907,190.86L154.598,190.86C173.553,190.86 188.943,175.487 188.943,156.552L188.943,87.786Z" style="fill:rgb(220,38,38);"/>
                </g>
                <g transform="matrix(1.66399,0,0,1.65646,-67.1863,50.3096)">
                    <circle cx="62.955" cy="55.237" r="12.124" style="fill:white;stroke:white;stroke-width:1.5px;"/>
                </g>
                <g transform="matrix(1.66399,0,0,1.65646,-159.271,-29.8995)">
                    <circle cx="62.955" cy="55.237" r="12.124" style="fill:white;stroke:white;stroke-width:1.5px;"/>
                </g>
            </g>
        </g>
    </g>
</svg>
