<?xml version="1.0" encoding="UTF-8" standalone="no"?><!DOCTYPE svg PUBLIC "-//W3C//DTD SVG 1.1//EN" "http://www.w3.org/Graphics/SVG/1.1/DTD/svg11.dtd"><svg width="100%" height="100%" viewBox="0 0 750 1050" version="1.1" xmlns="http://www.w3.org/2000/svg" xmlns:xlink="http://www.w3.org/1999/xlink" xml:space="preserve" xmlns:serif="http://www.serif.com/" style="fill-rule:evenodd;clip-rule:evenodd;stroke-linejoin:round;stroke-miterlimit:2;"><rect id="card-back-1" x="0" y="0.981" width="750" height="1048.82" style="fill:none;"/><clipPath id="_clip1"><rect x="0" y="0.981" width="750" height="1048.82"/></clipPath><g clip-path="url(#_clip1)"><g id="Card-Back" serif:id="Card Back"><path id="Card-Backing" serif:id="Card Backing" d="M749.87,38.081c0,-20.697 -16.803,-37.5 -37.5,-37.5l-675,-0c-20.697,-0 -37.5,16.803 -37.5,37.5l0,973.818c0,20.697 16.803,37.5 37.5,37.5l675,0c20.697,0 37.5,-16.803 37.5,-37.5l0,-973.818Z" style="fill:#fff;"/><g id="layer1"><path id="path3295" d="M321.506,308.979c35.574,-7.908 39.402,-28.741 42.085,-67.061c-6.181,10.236 -17.419,17.794 -35.765,17.73c-30.153,-0.104 -50.352,-17.641 -43.164,-55.498c7.245,-38.167 61.51,-52.967 86.176,-92.495c24.666,39.527 78.93,54.328 86.176,92.495c7.183,37.857 -12.179,55.389 -43.164,55.498c-18.346,0.064 -29.584,-7.494 -35.765,-17.73c2.683,38.32 6.506,59.153 42.084,67.061l-98.663,-0Z" style="fill-rule:nonzero;"/></g><clipPath id="_clip2"><rect id="Diamond-Icon" serif:id="Diamond Icon" x="270.618" y="699.187" width="197.324" height="197.324"/></clipPath><g clip-path="url(#_clip2)"><g id="layer11" serif:id="layer1"><path id="rect3462" d="M369.28,699.187c19.733,54.265 44.398,78.93 98.662,98.663c-54.264,19.732 -78.929,44.397 -98.662,98.662c-19.732,-54.265 -44.398,-78.93 -98.662,-98.662c54.264,-19.733 78.93,-44.398 98.662,-98.663Z" style="fill:#d40000;fill-rule:nonzero;"/></g></g><clipPath id="_clip3"><rect id="Clubs-Icon" serif:id="Clubs Icon" x="469.74" y="407.016" width="197.324" height="197.324"/></clipPath><g clip-path="url(#_clip3)"><g id="layer12" serif:id="layer1"><path id="path3395" d="M568.402,407.016c-23.339,0 -42.282,19.89 -42.282,44.398c0.202,15.421 8.16,28.454 16.442,40.851c-9.23,-6.985 -19.491,-11.208 -30.539,-11.252c-23.34,-0 -42.283,19.89 -42.283,44.398c-0,24.507 18.943,44.398 42.283,44.398c18.907,-0.316 34.032,-13.547 48.89,-24.666c-2.659,33.215 -8.065,51.867 -39.494,59.197l93.966,0c-31.429,-7.33 -36.836,-25.982 -39.495,-59.197c14.686,12.589 30.092,23.269 48.892,24.666c23.339,-0 42.282,-19.891 42.282,-44.398c-0,-24.508 -18.943,-44.398 -42.282,-44.398c-11.331,-0 -21.118,5.214 -30.541,11.252c9.373,-12.269 15.545,-25.504 16.442,-40.851c0,-24.508 -18.943,-44.398 -42.281,-44.398Z" style="fill-rule:nonzero;"/></g></g><clipPath id="_clip4"><rect id="Hearts-Icon" serif:id="Hearts Icon" x="72.955" y="415.453" width="197.324" height="197.324"/></clipPath><g clip-path="url(#_clip4)"><g id="layer13" serif:id="layer1"><path id="rect2277" d="M171.617,464.784c4.785,-24.666 14.36,-49.331 47.861,-49.331c33.505,-0 59.828,24.665 47.865,73.996c-11.967,49.331 -67.011,73.997 -95.726,123.328c-28.716,-49.331 -83.76,-73.997 -95.727,-123.328c-11.965,-49.331 14.36,-73.996 47.866,-73.996c33.5,-0 43.076,24.665 47.861,49.331Z" style="fill:#d40000;fill-rule:nonzero;"/></g></g></g></g></svg>