<?xml version="1.0" encoding="UTF-8" standalone="no"?><!DOCTYPE svg PUBLIC "-//W3C//DTD SVG 1.1//EN" "http://www.w3.org/Graphics/SVG/1.1/DTD/svg11.dtd"><svg width="100%" height="100%" viewBox="0 0 755 1055" version="1.1" xmlns="http://www.w3.org/2000/svg" xmlns:xlink="http://www.w3.org/1999/xlink" xml:space="preserve" xmlns:serif="http://www.serif.com/" style="fill-rule:evenodd;clip-rule:evenodd;stroke-linejoin:round;stroke-miterlimit:2;"><rect id="five-clubs" x="2.099" y="3.737" width="750" height="1048.82" style="fill:none;"/><clipPath id="_clip1"><rect x="2.099" y="3.737" width="750" height="1048.82"/></clipPath><g clip-path="url(#_clip1)"><g id="Clubs"><path id="Card-Backing" serif:id="Card Backing" d="M751.93,44.151c0,-20.697 -16.803,-37.5 -37.5,-37.5l-675,-0c-20.697,-0 -37.5,16.803 -37.5,37.5l0,973.819c0,20.696 16.803,37.5 37.5,37.5l675,-0c20.697,-0 37.5,-16.804 37.5,-37.5l0,-973.819Z" style="fill:#fff;"/><clipPath id="_clip2"><rect id="Clubs-Icon" serif:id="Clubs Icon" x="210.365" y="582.533" width="333.333" height="333.333"/></clipPath><g clip-path="url(#_clip2)"><g id="layer1"><path id="path3395" d="M377.032,582.533c-39.425,-0 -71.425,33.6 -71.425,75c0.342,26.05 13.783,48.066 27.775,69.008c-15.592,-11.8 -32.925,-18.933 -51.588,-19.008c-39.429,-0 -71.429,33.6 -71.429,75c0,41.4 32,75 71.429,75c31.938,-0.534 57.488,-22.884 82.588,-41.667c-4.492,56.108 -13.625,87.617 -66.717,100l158.734,0c-53.092,-12.383 -62.225,-43.892 -66.717,-100c24.808,21.267 50.833,39.308 82.592,41.667c39.425,-0 71.425,-33.6 71.425,-75c-0,-41.4 -32,-75 -71.425,-75c-19.142,-0 -35.675,8.808 -51.592,19.008c15.833,-20.725 26.258,-43.083 27.775,-69.008c-0,-41.4 -32,-75 -71.425,-75Z" style="fill-rule:nonzero;"/></g></g></g><text x="319.122px" y="418.065px" style="font-family:'Impact', sans-serif;font-stretch:condensed;font-size:200px;">5</text></g></svg>