<?xml version="1.0" encoding="UTF-8" standalone="no"?><!DOCTYPE svg PUBLIC "-//W3C//DTD SVG 1.1//EN" "http://www.w3.org/Graphics/SVG/1.1/DTD/svg11.dtd"><svg width="100%" height="100%" viewBox="0 0 755 1055" version="1.1" xmlns="http://www.w3.org/2000/svg" xmlns:xlink="http://www.w3.org/1999/xlink" xml:space="preserve" xmlns:serif="http://www.serif.com/" style="fill-rule:evenodd;clip-rule:evenodd;stroke-linejoin:round;stroke-miterlimit:2;"><rect id="five-hearts" x="1.259" y="3.377" width="750" height="1048.82" style="fill:none;"/><clipPath id="_clip1"><rect x="1.259" y="3.377" width="750" height="1048.82"/></clipPath><g clip-path="url(#_clip1)"><g id="Hearts"><path id="Card-Backing" serif:id="Card Backing" d="M750.071,42.953c0,-20.697 -16.803,-37.5 -37.5,-37.5l-675,0c-20.696,0 -37.5,16.803 -37.5,37.5l0,973.819c0,20.697 16.804,37.5 37.5,37.5l675,-0c20.697,-0 37.5,-16.803 37.5,-37.5l0,-973.819Z" style="fill:#fff;"/><clipPath id="_clip2"><rect id="Hearts-Icon" serif:id="Hearts Icon" x="206.355" y="572.575" width="333.333" height="333.333"/></clipPath><g clip-path="url(#_clip2)"><g id="layer1"><path id="rect2277" d="M373.022,655.908c8.083,-41.666 24.258,-83.333 80.85,-83.333c56.6,0 101.067,41.667 80.858,125c-20.216,83.333 -113.2,125 -161.708,208.333c-48.508,-83.333 -141.492,-125 -161.708,-208.333c-20.212,-83.333 24.257,-125 80.858,-125c56.592,0 72.767,41.667 80.85,83.333Z" style="fill:#d40000;fill-rule:nonzero;"/></g></g></g><text x="314.312px" y="404.437px" style="font-family:'Impact', sans-serif;font-stretch:condensed;font-size:200px;fill:#d40000;">5</text></g></svg>