<?xml version="1.0" encoding="UTF-8" standalone="no"?><!DOCTYPE svg PUBLIC "-//W3C//DTD SVG 1.1//EN" "http://www.w3.org/Graphics/SVG/1.1/DTD/svg11.dtd"><svg width="100%" height="100%" viewBox="0 0 755 1055" version="1.1" xmlns="http://www.w3.org/2000/svg" xmlns:xlink="http://www.w3.org/1999/xlink" xml:space="preserve" xmlns:serif="http://www.serif.com/" style="fill-rule:evenodd;clip-rule:evenodd;stroke-linejoin:round;stroke-miterlimit:2;"><rect id="_-nine-spades" serif:id=" nine-spades" x="2.611" y="2.96" width="750" height="1048.82" style="fill:none;"/><clipPath id="_clip1"><rect x="2.611" y="2.96" width="750" height="1048.82"/></clipPath><g clip-path="url(#_clip1)"><g id="Spades"><path id="Card-Backing" serif:id="Card Backing" d="M752.481,40.06c0,-20.697 -16.803,-37.5 -37.5,-37.5l-675,-0c-20.696,-0 -37.5,16.803 -37.5,37.5l0,973.819c0,20.696 16.804,37.5 37.5,37.5l675,-0c20.697,-0 37.5,-16.804 37.5,-37.5l0,-973.819Z" style="fill:#fff;"/><g id="layer1"><path id="path3295" d="M293.154,882.253c60.093,-13.359 66.56,-48.55 71.093,-113.284c-10.442,17.292 -29.425,30.059 -60.417,29.95c-50.936,-0.175 -85.058,-29.8 -72.916,-93.75c12.24,-64.475 103.908,-89.475 145.575,-156.25c41.666,66.774 133.333,91.775 145.575,156.25c12.133,63.95 -20.575,93.567 -72.917,93.75c-30.992,0.109 -49.975,-12.658 -60.417,-29.95c4.534,64.734 10.992,99.925 71.092,113.284l-166.668,-0Z" style="fill-rule:nonzero;"/></g></g><text x="322.495px" y="429.464px" style="font-family:'Impact', sans-serif;font-stretch:condensed;font-size:200px;">9</text></g></svg>