<?xml version="1.0" encoding="UTF-8" standalone="no"?><!DOCTYPE svg PUBLIC "-//W3C//DTD SVG 1.1//EN" "http://www.w3.org/Graphics/SVG/1.1/DTD/svg11.dtd"><svg width="100%" height="100%" viewBox="0 0 755 1050" version="1.1" xmlns="http://www.w3.org/2000/svg" xmlns:xlink="http://www.w3.org/1999/xlink" xml:space="preserve" xmlns:serif="http://www.serif.com/" style="fill-rule:evenodd;clip-rule:evenodd;stroke-linejoin:round;stroke-miterlimit:2;"><rect id="nine-diamonds" x="2.252" y="0.862" width="750" height="1048.82" style="fill:none;"/><clipPath id="_clip1"><rect x="2.252" y="0.862" width="750" height="1048.82"/></clipPath><g clip-path="url(#_clip1)"><g id="Diamond"><path id="Card-Backing" serif:id="Card Backing" d="M751.855,37.041c-0,-20.697 -16.803,-37.5 -37.5,-37.5l-675,-0c-20.697,-0 -37.5,16.803 -37.5,37.5l-0,973.819c-0,20.696 16.803,37.5 37.5,37.5l675,-0c20.697,-0 37.5,-16.804 37.5,-37.5l-0,-973.819Z" style="fill:#fff;"/><clipPath id="_clip2"><rect id="Diamond-Icon" serif:id="Diamond Icon" x="210.072" y="599.918" width="333.333" height="333.333"/></clipPath><g clip-path="url(#_clip2)"><g id="layer1"><path id="rect3462" d="M376.739,599.918c33.333,91.667 75,133.334 166.667,166.667c-91.667,33.333 -133.334,75 -166.667,166.667c-33.333,-91.667 -75,-133.334 -166.667,-166.667c91.667,-33.333 133.334,-75 166.667,-166.667Z" style="fill:#d40000;fill-rule:nonzero;"/></g></g></g><text x="328.839px" y="411.587px" style="font-family:'Impact', sans-serif;font-stretch:condensed;font-size:200px;fill:#d40000;">9</text></g></svg>