<?xml version="1.0" encoding="UTF-8" standalone="no"?><!DOCTYPE svg PUBLIC "-//W3C//DTD SVG 1.1//EN" "http://www.w3.org/Graphics/SVG/1.1/DTD/svg11.dtd"><svg width="100%" height="100%" viewBox="0 0 755 1055" version="1.1" xmlns="http://www.w3.org/2000/svg" xmlns:xlink="http://www.w3.org/1999/xlink" xml:space="preserve" xmlns:serif="http://www.serif.com/" style="fill-rule:evenodd;clip-rule:evenodd;stroke-linejoin:round;stroke-miterlimit:2;"><rect id="seven-hearts" x="2.543" y="1.368" width="750" height="1048.82" style="fill:none;"/><clipPath id="_clip1"><rect x="2.543" y="1.368" width="750" height="1048.82"/></clipPath><g clip-path="url(#_clip1)"><g id="Hearts"><path id="Card-Backing" serif:id="Card Backing" d="M751.355,40.945c0,-20.697 -16.803,-37.5 -37.5,-37.5l-675,-0c-20.697,-0 -37.5,16.803 -37.5,37.5l0,973.818c0,20.697 16.803,37.5 37.5,37.5l675,0c20.697,0 37.5,-16.803 37.5,-37.5l0,-973.818Z" style="fill:#fff;"/><clipPath id="_clip2"><rect id="Hearts-Icon" serif:id="Hearts Icon" x="207.639" y="570.567" width="333.333" height="333.333"/></clipPath><g clip-path="url(#_clip2)"><g id="layer1"><path id="rect2277" d="M374.306,653.9c8.083,-41.667 24.258,-83.333 80.85,-83.333c56.6,-0 101.066,41.666 80.858,125c-20.217,83.333 -113.2,125 -161.708,208.333c-48.509,-83.333 -141.492,-125 -161.709,-208.333c-20.211,-83.334 24.258,-125 80.859,-125c56.591,-0 72.766,41.666 80.85,83.333Z" style="fill:#d40000;fill-rule:nonzero;"/></g></g></g><text x="330.098px" y="402.429px" style="font-family:'Impact', sans-serif;font-stretch:condensed;font-size:200px;fill:#d40000;">7</text></g></svg>