<?xml version="1.0" encoding="UTF-8" standalone="no"?><!DOCTYPE svg PUBLIC "-//W3C//DTD SVG 1.1//EN" "http://www.w3.org/Graphics/SVG/1.1/DTD/svg11.dtd"><svg width="100%" height="100%" viewBox="0 0 755 1055" version="1.1" xmlns="http://www.w3.org/2000/svg" xmlns:xlink="http://www.w3.org/1999/xlink" xml:space="preserve" xmlns:serif="http://www.serif.com/" style="fill-rule:evenodd;clip-rule:evenodd;stroke-linejoin:round;stroke-miterlimit:2;"><rect id="three-spades" x="3.352" y="3.503" width="750" height="1048.82" style="fill:none;"/><clipPath id="_clip1"><rect x="3.352" y="3.503" width="750" height="1048.82"/></clipPath><g clip-path="url(#_clip1)"><g id="Spades"><path id="Card-Backing" serif:id="Card Backing" d="M753.222,40.603c0,-20.697 -16.803,-37.5 -37.5,-37.5l-675,-0c-20.697,-0 -37.5,16.803 -37.5,37.5l0,973.818c0,20.697 16.803,37.5 37.5,37.5l675,0c20.697,0 37.5,-16.803 37.5,-37.5l0,-973.818Z" style="fill:#fff;"/><g id="layer1"><path id="path3295" d="M293.894,882.796c60.094,-13.359 66.56,-48.55 71.094,-113.284c-10.442,17.292 -29.425,30.059 -60.417,29.95c-50.937,-0.175 -85.058,-29.8 -72.917,-93.75c12.24,-64.475 103.909,-89.475 145.575,-156.25c41.667,66.774 133.334,91.775 145.575,156.25c12.134,63.95 -20.575,93.567 -72.916,93.75c-30.992,0.109 -49.975,-12.658 -60.417,-29.95c4.533,64.734 10.992,99.925 71.092,113.284l-166.669,-0Z" style="fill-rule:nonzero;"/></g></g><text x="324.359px" y="430.007px" style="font-family:'Impact', sans-serif;font-stretch:condensed;font-size:200px;">3</text></g></svg>